# xmcd CD database file
#
# Track frame offsets:
#	150
#	24552
#	43085
#	69470
#	87485
#	108992
#	129730
#	151197
#	169735
#	189102
#	208245
#	217677
#	239450
#	256780
#	281007
#	301952
#
# Disc length: 4272 seconds
#
# Revision: 1
# Processed by: cddbd v1.5.2PL0 Copyright (c) Steve Scherf et al.
# Submitted via: CDex 1.70beta2
#
DISCID=da10ae10
DTITLE=巫啟賢 - 思念誰 
DYEAR=1997
DGENRE=Blues
TTITLE0=風
TTITLE1=思念誰
TTITLE2=回來
TTITLE3=同桌的你
TTITLE4=春水流
TTITLE5=愛人原諒我
TTITLE6=大中國
TTITLE7=彎彎的月亮
TTITLE8=離家回家
TTITLE9=隨心所欲 
TTITLE10=FLY AWAY MELODY
TTITLE11=愛那麼重
TTITLE12=愛情傀儡
TTITLE13=太傻
TTITLE14=愛情來的時候
TTITLE15=心酸的情歌
EXTD=YEAR: 1997
EXTT0=
EXTT1=
EXTT2=
EXTT3=
EXTT4=
EXTT5=
EXTT6=
EXTT7=
EXTT8=
EXTT9=
EXTT10=
EXTT11=
EXTT12=
EXTT13=
EXTT14=
EXTT15=
PLAYORDER=
